<svg width="200" height="200" viewBox="0 0 200 200" fill="none" xmlns="http://www.w3.org/2000/svg">
<g clip-path="url(#clip0_2042_14928)">
<path d="M44.4583 16H155.542C172.383 16 186 29.641 186 46.5128V153.487C186 170.359 172.383 184 155.542 184H44.4583C27.6167 184 14 170.359 14 153.487V46.5128C14 29.641 27.6167 16 44.4583 16Z" fill="#001E36"/>
<path d="M52.6992 133.816V59.9393C52.6992 59.4367 52.9142 59.1495 53.4159 59.1495C54.6342 59.1495 55.7809 59.1495 57.4292 59.0777C59.1492 59.0059 60.9409 59.0059 62.8759 58.9341C64.8109 58.8623 66.8892 58.8623 69.1109 58.7905C71.3326 58.7187 73.4826 58.7188 75.6326 58.7188C81.5092 58.7188 86.3825 59.4367 90.3959 60.9444C93.9792 62.1649 97.2759 64.1752 99.9992 66.8316C102.293 69.129 104.084 71.929 105.231 75.0162C106.306 78.0316 106.879 81.1187 106.879 84.3495C106.879 90.5239 105.446 95.6213 102.579 99.6418C99.7125 103.662 95.6992 106.678 91.0409 108.401C86.1676 110.196 80.7926 110.842 74.9159 110.842C73.1959 110.842 72.0492 110.842 71.3326 110.77C70.6159 110.698 69.6125 110.698 68.2509 110.698V133.744C68.3225 134.247 67.9642 134.678 67.4626 134.75C67.3909 134.75 67.3192 134.75 67.1759 134.75H53.5592C52.9859 134.75 52.6992 134.462 52.6992 133.816ZM68.3226 73.0059V97.129C69.3259 97.2008 70.2575 97.2726 71.1175 97.2726H74.9159C77.7109 97.2726 80.5059 96.8418 83.1576 95.9803C85.4509 95.3341 87.4575 93.97 89.0342 92.1752C90.5392 90.3803 91.2559 87.9393 91.2559 84.7803C91.3276 82.5546 90.7542 80.329 89.6076 78.3905C88.3892 76.5239 86.6692 75.088 84.5909 74.2982C81.9392 73.2213 79.0725 72.7905 76.1342 72.8623C74.2709 72.8623 72.6226 72.8623 71.2609 72.9341C69.8276 72.8623 68.8242 72.9341 68.3226 73.0059Z" fill="#31A8FF"/>
<path d="M151.6 92.7491C149.45 91.6004 147.157 90.8106 144.72 90.308C142.068 89.7337 139.417 89.3747 136.693 89.3747C135.26 89.3029 133.755 89.5183 132.393 89.8773C131.462 90.0927 130.673 90.5952 130.172 91.3132C129.813 91.8875 129.598 92.6055 129.598 93.2516C129.598 93.8978 129.885 94.5439 130.315 95.1183C130.96 95.908 131.82 96.5542 132.752 97.0568C134.4 97.9183 136.12 98.708 137.84 99.426C141.71 100.718 145.437 102.513 148.877 104.667C151.242 106.175 153.177 108.185 154.538 110.626C155.685 112.923 156.258 115.436 156.187 118.021C156.258 121.395 155.255 124.77 153.392 127.57C151.385 130.441 148.59 132.667 145.365 133.959C141.853 135.467 137.553 136.257 132.393 136.257C129.097 136.257 125.872 135.97 122.647 135.323C120.138 134.893 117.63 134.103 115.337 133.026C114.835 132.739 114.477 132.236 114.548 131.662V119.17C114.548 118.954 114.62 118.667 114.835 118.523C115.05 118.38 115.265 118.452 115.48 118.595C118.275 120.247 121.213 121.395 124.367 122.113C127.09 122.831 129.957 123.19 132.823 123.19C135.547 123.19 137.482 122.831 138.772 122.185C139.918 121.682 140.707 120.462 140.707 119.17C140.707 118.164 140.133 117.231 138.987 116.298C137.84 115.364 135.475 114.288 131.963 112.923C128.308 111.631 124.94 109.908 121.787 107.754C119.565 106.175 117.702 104.093 116.34 101.652C115.193 99.3542 114.62 96.8414 114.692 94.3286C114.692 91.2414 115.552 88.2978 117.128 85.6414C118.92 82.7696 121.572 80.4722 124.653 79.0363C128.022 77.3132 132.25 76.5234 137.338 76.5234C140.277 76.5234 143.287 76.7388 146.225 77.1696C148.375 77.4568 150.453 78.0311 152.388 78.8209C152.675 78.8927 152.962 79.1798 153.105 79.467C153.177 79.7542 153.248 80.0414 153.248 80.3286V92.0311C153.248 92.3183 153.105 92.6055 152.89 92.7491C152.245 92.8927 151.887 92.8927 151.6 92.7491Z" fill="#31A8FF"/>
</g>
<defs>
<clipPath id="clip0_2042_14928">
<rect width="172" height="168" fill="white" transform="translate(14 16)"/>
</clipPath>
</defs>
</svg>
