<svg width="200" height="200" viewBox="0 0 200 200" fill="none" xmlns="http://www.w3.org/2000/svg">
<path d="M69.5537 94.2571C67.2794 91.7552 63.8681 91.9827 62.2758 94.9396L25.4297 168.631C24.0651 171.588 26.1121 175 29.2962 175H80.4712C82.0637 175 83.6556 174.09 84.3381 172.498C95.4825 149.754 88.8869 114.955 69.5537 94.2571Z" fill="url(#paint0_linear_2040_15056)"/>
<path d="M96.3964 27.3882C75.9264 59.9128 77.2914 96.0769 90.7101 123.143C104.357 150.209 114.592 171.133 115.502 172.498C116.184 174.09 117.776 175 119.368 175H170.544C173.728 175 176.002 171.588 174.41 168.631C174.41 168.631 105.494 30.7999 103.674 27.3882C102.31 24.2039 98.4432 24.2039 96.3964 27.3882Z" fill="#2684FF"/>
<defs>
<linearGradient id="paint0_linear_2040_15056" x1="89.66" y1="105.656" x2="50.8281" y2="172.916" gradientUnits="userSpaceOnUse">
<stop stop-color="#0052CC"/>
<stop offset="0.9228" stop-color="#2684FF"/>
</linearGradient>
</defs>
</svg>
