<svg width="200" height="200" viewBox="0 0 200 200" fill="none" xmlns="http://www.w3.org/2000/svg">
<g clip-path="url(#clip0_2040_15067)">
<path d="M117.48 59.596C102.413 59.596 87.5138 66.064 76.1821 78.832V16H53.7285V121.798C53.7285 156.154 81.5542 184 115.885 184C150.216 184 178.042 156.154 178.042 121.798C178.042 87.442 151.769 59.596 117.48 59.596ZM115.843 160.018C94.7325 160.018 77.651 142.882 77.651 121.798C77.651 100.672 94.7745 83.578 115.843 83.578C136.954 83.578 154.035 100.714 154.035 121.798C154.035 142.882 136.954 160.018 115.843 160.018Z" fill="#262626"/>
<path d="M37.3608 153.215C28.883 153.215 22 160.103 22 168.587C22 177.071 28.883 183.959 37.3608 183.959C45.8386 183.959 52.7216 177.071 52.7216 168.587C52.7216 160.103 45.8386 153.215 37.3608 153.215Z" fill="#0000FF"/>
</g>
<defs>
<clipPath id="clip0_2040_15067">
<rect width="156" height="168" fill="white" transform="translate(22 16)"/>
</clipPath>
</defs>
</svg>
