<svg width="200" height="200" viewBox="0 0 200 200" fill="none" xmlns="http://www.w3.org/2000/svg">
<g clip-path="url(#clip0_2040_15076)">
<path d="M100 100C100 84.6938 112.408 72.2852 127.715 72.2852C143.021 72.2852 155.43 84.6938 155.43 100C155.43 115.307 143.021 127.715 127.715 127.715C112.408 127.715 100 115.307 100 100Z" fill="#1ABCFE"/>
<path d="M44.5703 155.43C44.5703 140.124 56.9787 127.715 72.2852 127.715H100V155.43C100 170.736 87.5919 183.145 72.2852 183.145C56.9787 183.145 44.5703 170.736 44.5703 155.43Z" fill="#0ACF83"/>
<path d="M100 16.8555V72.2852H127.715C143.022 72.2852 155.43 59.8769 155.43 44.5704C155.43 29.2639 143.022 16.8555 127.715 16.8555H100Z" fill="#FF7262"/>
<path d="M44.5703 44.5704C44.5703 59.8769 56.9787 72.2852 72.2852 72.2852H100V16.8555H72.2852C56.9787 16.8555 44.5703 29.2639 44.5703 44.5704Z" fill="#F24E1E"/>
<path d="M44.5703 100C44.5703 115.307 56.9787 127.715 72.2852 127.715H100V72.2852H72.2852C56.9787 72.2852 44.5703 84.6938 44.5703 100Z" fill="#A259FF"/>
</g>
<defs>
<clipPath id="clip0_2040_15076">
<rect width="112" height="168" fill="white" transform="translate(44 16)"/>
</clipPath>
</defs>
</svg>
