<svg width="200" height="200" viewBox="0 0 200 200" fill="none" xmlns="http://www.w3.org/2000/svg">
<g clip-path="url(#clip0_2040_15075)">
<path d="M30.2137 23.2464L123.212 16.2687C134.501 15.1953 137.457 16.0004 144.715 21.0994L174.549 42.0323C179.387 45.5211 181 46.5946 181 50.6202V165.214C181 172.46 178.312 176.754 169.174 177.291L61.1235 183.732C54.1352 184 50.9098 183.195 47.4157 178.633L25.6444 150.454C21.6127 145.087 20 141.329 20 136.767V34.7863C20 28.8822 22.6878 23.7831 30.2137 23.2464Z" fill="white"/>
<path fill-rule="evenodd" clip-rule="evenodd" d="M123.212 16.2689L30.2137 23.2465C22.6878 23.7833 20 28.8823 20 34.7865V136.767C20 141.33 21.6127 145.355 25.6444 150.454L47.4157 178.901C50.9098 183.464 54.404 184.537 61.1235 184.001L169.174 177.56C178.312 177.023 181 172.729 181 165.483V50.6203C181 46.8631 179.656 45.7896 175.087 42.5692C174.818 42.3008 174.549 42.3008 174.28 42.0325L144.715 21.3679C137.726 16.0005 134.77 15.4638 123.212 16.2689ZM63.5426 48.7417C54.6728 49.2785 52.7913 49.5468 47.6845 45.2529L35.0518 35.3232C33.7078 33.9813 34.2454 32.3711 37.7396 32.1027L127.244 25.6619C134.77 25.1251 138.533 27.5404 141.489 29.9558L156.81 40.959C157.616 41.2273 159.229 43.1059 157.078 43.1059L64.6177 48.7417H63.5426ZM53.3289 164.409V66.9909C53.3289 62.697 54.6728 60.8184 58.4357 60.55L164.604 54.3775C168.098 54.1091 169.711 56.2561 169.711 60.55V157.163C169.711 161.457 168.905 164.946 163.26 165.215L61.6611 171.119C56.0167 171.655 53.3289 169.509 53.3289 164.409ZM153.584 72.3583C154.122 75.3104 153.584 78.2625 150.628 78.5309L145.79 79.6044V151.528C141.489 153.943 137.726 155.016 134.501 155.016C129.394 155.016 128.05 153.406 124.018 148.576L91.7646 98.1219V146.697L101.978 149.112C101.978 149.112 101.978 155.016 93.9149 155.016L71.3372 156.358C70.7997 155.016 71.3372 151.796 73.4875 151.259L79.4007 149.649V85.2401L71.3372 84.435C70.7997 81.4829 72.4124 77.189 76.9816 76.9206L101.172 75.3104L134.501 126.301V81.2146L125.9 80.1411C125.362 76.6523 127.781 73.9686 131.007 73.7002L153.584 72.3583Z" fill="black"/>
</g>
<defs>
<clipPath id="clip0_2040_15075">
<rect width="161" height="168" fill="white" transform="translate(20 16)"/>
</clipPath>
</defs>
</svg>
