<svg width="200" height="200" viewBox="0 0 200 200" fill="none" xmlns="http://www.w3.org/2000/svg">
<g clip-path="url(#clip0_2040_15069)">
<path d="M51.2964 122.162C51.2964 131.875 43.3616 139.81 33.6482 139.81C23.9349 139.81 16 131.875 16 122.162C16 112.449 23.9349 104.514 33.6482 104.514H51.2964V122.162Z" fill="#E01E5A"/>
<path d="M60.1895 122.162C60.1895 112.449 68.1243 104.514 77.8377 104.514C87.551 104.514 95.4859 112.449 95.4859 122.162V166.351C95.4859 176.064 87.551 183.999 77.8377 183.999C68.1243 183.999 60.1895 176.064 60.1895 166.351V122.162Z" fill="#E01E5A"/>
<path d="M77.8377 51.2964C68.1243 51.2964 60.1895 43.3616 60.1895 33.6482C60.1895 23.9349 68.1243 16 77.8377 16C87.551 16 95.4859 23.9349 95.4859 33.6482V51.2964H77.8377Z" fill="#36C5F0"/>
<path d="M77.8371 60.1895C87.5505 60.1895 95.4853 68.1243 95.4853 77.8377C95.4853 87.551 87.5505 95.4859 77.8371 95.4859H33.6482C23.9349 95.4859 16 87.551 16 77.8377C16 68.1243 23.9349 60.1895 33.6482 60.1895H77.8371Z" fill="#36C5F0"/>
<path d="M148.701 77.8377C148.701 68.1243 156.636 60.1895 166.349 60.1895C176.063 60.1895 183.998 68.1243 183.998 77.8377C183.998 87.551 176.063 95.4859 166.349 95.4859H148.701V77.8377Z" fill="#2EB67D"/>
<path d="M139.81 77.8371C139.81 87.5505 131.875 95.4853 122.162 95.4853C112.449 95.4853 104.514 87.5505 104.514 77.8371V33.6482C104.514 23.9349 112.449 16 122.162 16C131.875 16 139.81 23.9349 139.81 33.6482V77.8371Z" fill="#2EB67D"/>
<path d="M122.162 148.701C131.875 148.701 139.81 156.636 139.81 166.349C139.81 176.063 131.875 183.998 122.162 183.998C112.449 183.998 104.514 176.063 104.514 166.349V148.701H122.162Z" fill="#ECB22E"/>
<path d="M122.162 139.81C112.449 139.81 104.514 131.875 104.514 122.162C104.514 112.449 112.449 104.514 122.162 104.514H166.351C176.064 104.514 183.999 112.449 183.999 122.162C183.999 131.875 176.064 139.81 166.351 139.81H122.162Z" fill="#ECB22E"/>
</g>
<defs>
<clipPath id="clip0_2040_15069">
<rect width="168" height="168" fill="white" transform="translate(16 16)"/>
</clipPath>
</defs>
</svg>
