<svg width="60" height="60" viewBox="0 0 60 60" fill="none" xmlns="http://www.w3.org/2000/svg">
<g filter="url(#filter0_dddi_753_3925)">
<mask id="mask0_753_3925" style="mask-type:luminance" maskUnits="userSpaceOnUse" x="3" y="2" width="54" height="54">
<path d="M3 23.5579C3 16.012 3 12.2389 4.46855 9.35677C5.7603 6.82152 7.82152 4.7603 10.3568 3.46855C13.2389 2 17.012 2 24.5579 2H35.3368C42.8828 2 46.6558 2 49.5379 3.46855C52.0732 4.7603 54.1345 6.82152 55.4263 9.35677C56.8947 12.2389 56.8947 16.012 56.8947 23.5579V34.3368C56.8947 41.8828 56.8947 45.6558 55.4263 48.5379C54.1345 51.0732 52.0732 53.1345 49.5379 54.4263C46.6558 55.8947 42.8828 55.8947 35.3368 55.8947H24.5579C17.012 55.8947 13.2389 55.8947 10.3568 54.4263C7.82152 53.1345 5.7603 51.0732 4.46855 48.5379C3 45.6558 3 41.8828 3 34.3368V23.5579Z" fill="white"/>
</mask>
<g mask="url(#mask0_753_3925)">
<path d="M3 23.5579C3 16.012 3 12.2389 4.46855 9.35677C5.7603 6.82152 7.82152 4.7603 10.3568 3.46855C13.2389 2 17.012 2 24.5579 2H35.3368C42.8828 2 46.6558 2 49.5379 3.46855C52.0732 4.7603 54.1345 6.82152 55.4263 9.35677C56.8947 12.2389 56.8947 16.012 56.8947 23.5579V34.3368C56.8947 41.8828 56.8947 45.6558 55.4263 48.5379C54.1345 51.0732 52.0732 53.1345 49.5379 54.4263C46.6558 55.8947 42.8828 55.8947 35.3368 55.8947H24.5579C17.012 55.8947 13.2389 55.8947 10.3568 54.4263C7.82152 53.1345 5.7603 51.0732 4.46855 48.5379C3 45.6558 3 41.8828 3 34.3368V23.5579Z" fill="white"/>
<g filter="url(#filter1_d_753_3925)">
<path d="M3 23.5579C3 16.012 3 12.2389 4.46855 9.35677C5.7603 6.82152 7.82152 4.7603 10.3568 3.46855C13.2389 2 17.012 2 24.5579 2H35.3368C42.8828 2 46.6558 2 49.5379 3.46855C52.0732 4.7603 54.1345 6.82152 55.4263 9.35677C56.8947 12.2389 56.8947 16.012 56.8947 23.5579V34.3368C56.8947 41.8828 56.8947 45.6558 55.4263 48.5379C54.1345 51.0732 52.0732 53.1345 49.5379 54.4263C46.6558 55.8947 42.8828 55.8947 35.3368 55.8947H24.5579C17.012 55.8947 13.2389 55.8947 10.3568 54.4263C7.82152 53.1345 5.7603 51.0732 4.46855 48.5379C3 45.6558 3 41.8828 3 34.3368V23.5579Z" fill="url(#paint0_linear_753_3925)" fill-opacity="0.2" shape-rendering="crispEdges"/>
</g>
<mask id="mask1_753_3925" style="mask-type:luminance" maskUnits="userSpaceOnUse" x="3" y="2" width="54" height="54">
<path d="M56.8947 2H3V55.8947H56.8947V2Z" fill="white"/>
</mask>
<g mask="url(#mask1_753_3925)">
<g opacity="0.14">
<path fill-rule="evenodd" clip-rule="evenodd" d="M29.882 2H30.0127V5.30312C33.1354 5.31158 36.1158 5.92537 38.8427 7.03335V2H38.9734V7.08696C41.2887 8.04394 43.4187 9.35801 45.2949 10.9605H47.8034V2H47.9341V10.9605H56.8947V11.0913H47.9341V13.5996C49.5366 15.4759 50.8506 17.6059 51.8078 19.921H56.8947V20.0519H51.8613C52.9693 22.7786 53.5831 25.759 53.5917 28.8815H56.8947V29.0124H53.5917C53.5832 32.1351 52.9695 35.1153 51.8616 37.842H56.8947V37.9729H51.8081C50.8509 40.2883 49.5368 42.4187 47.9341 44.2952V46.8027H56.8947V46.9334H47.9341V55.8947H47.8034V46.9334H45.2959C43.4194 48.5363 41.289 49.8506 38.9734 50.8079V55.8947H38.8427V50.8615C36.1158 51.9693 33.1354 52.5832 30.0127 52.5917V55.8947H29.882V52.5917C26.7593 52.5832 23.7789 51.9693 21.052 50.8615V55.8947H20.9213V50.8079C18.6057 49.8506 16.4754 48.5363 14.5988 46.9334H12.0914V55.8947H11.9606V46.9334H3V46.8027H11.9606V44.2952C10.3579 42.4187 9.04374 40.2883 8.0867 37.9729H3V37.842H8.03309C6.92522 35.1153 6.31151 32.1351 6.30311 29.0124H3V28.8815H6.30311C6.31161 25.759 6.92544 22.7786 8.03343 20.0519H3V19.921H8.08706C9.04406 17.6059 10.3581 15.4759 11.9606 13.5996V11.0913H3V10.9605H11.9606V2H12.0914V10.9605H14.5998C16.476 9.35801 18.6061 8.04394 20.9213 7.08696V2H21.052V7.03335C23.7789 5.92537 26.7593 5.3116 29.882 5.30312V2ZM29.882 5.43394C26.7578 5.44246 23.7771 6.06021 21.052 7.17465V10.9605H29.882V5.43394ZM20.9213 7.22861C18.6862 8.15852 16.6256 9.42338 14.8019 10.9605H20.9213V7.22861ZM14.4479 11.0913H12.0914V13.4478C12.8208 12.6083 13.6084 11.8207 14.4479 11.0913ZM12.0914 13.648C12.8771 12.7319 13.732 11.877 14.6481 11.0913H20.9213V19.921H12.0914V13.648ZM11.9606 13.8018C10.4235 15.6254 9.15864 17.6861 8.2287 19.921H11.9606V13.8018ZM8.17474 20.0519C7.06026 22.7768 6.44248 25.7575 6.43392 28.8815H11.9606V20.0519H8.17474ZM6.43392 29.0124C6.44237 32.1364 7.06004 35.1171 8.1744 37.842H11.9606V29.0124H6.43392ZM8.22836 37.9729C9.15832 40.2082 10.4233 42.2691 11.9606 44.093V37.9729H8.22836ZM12.0914 44.447V46.8027H14.4469C13.6078 46.0734 12.8205 45.2862 12.0914 44.447ZM14.6471 46.8027C13.7314 46.0172 12.8768 45.1626 12.0914 44.2469V37.9729H20.9213V46.8027H14.6471ZM14.8009 46.9334C16.6249 48.4709 18.6859 49.7361 20.9213 50.6661V46.9334H14.8009ZM21.052 50.7202C23.7771 51.8346 26.7578 52.4524 29.882 52.4608V46.9334H21.052V50.7202ZM30.0127 52.4608C33.1368 52.4524 36.1176 51.8346 38.8427 50.7202V46.9334H30.0127V52.4608ZM38.9734 50.6661C41.2088 49.7361 43.2698 48.4709 45.0938 46.9334H38.9734V50.6661ZM45.4478 46.8027H47.8034V44.447C47.0743 45.2862 46.2869 46.0734 45.4478 46.8027ZM47.8034 44.2469C47.0179 45.1626 46.1633 46.0172 45.2476 46.8027H38.9734V37.9729H47.8034V44.2469ZM47.9341 44.093C49.4714 42.2691 50.7364 40.2082 51.6664 37.9729H47.9341V44.093ZM51.7203 37.842C52.8348 35.1171 53.4524 32.1364 53.4608 29.0124H47.9341V37.842H51.7203ZM53.4608 28.8815C53.4522 25.7576 52.8344 22.7768 51.72 20.0519H47.9341V28.8815H53.4608ZM51.6661 19.921C50.7361 17.6861 49.4712 15.6254 47.9341 13.8018V19.921H51.6661ZM47.8034 13.4478V11.0913H45.4468C46.2864 11.8207 47.0739 12.6083 47.8034 13.4478ZM45.2466 11.0913C46.1628 11.877 47.0177 12.7319 47.8034 13.648V19.921H38.9734V11.0913H45.2466ZM45.0928 10.9605C43.2691 9.42338 41.2085 8.15852 38.9734 7.22861V10.9605H45.0928ZM38.8427 7.17465C36.1176 6.06019 33.1368 5.44244 30.0127 5.43394V10.9605H38.8427V7.17465ZM21.052 11.0913H29.882V19.921H21.052V11.0913ZM38.8427 11.0913H30.0127V19.921H38.8427V11.0913ZM20.9213 37.842H12.0914V29.0124H20.9213V37.842ZM21.052 37.9729V46.8027H29.882V37.9729H21.052ZM29.882 37.842H21.052V29.0124H29.882V37.842ZM30.0127 37.9729V46.8027H38.8427V37.9729H30.0127ZM38.8427 37.842H30.0127V29.0124H38.8427V37.842ZM47.8034 37.842H38.9734V29.0124H47.8034V37.842ZM21.052 20.0519H29.882V28.8815H21.052V20.0519ZM12.0914 20.0519H20.9213V28.8815H12.0914V20.0519ZM38.8427 20.0519H30.0127V28.8815H38.8427V20.0519ZM38.9734 28.8815V20.0519H47.8034V28.8815H38.9734Z" fill="#0A0D12"/>
</g>
</g>
<path d="M30.2598 25.8188H28.6348C27.692 25.8188 27.2206 25.8188 26.9277 26.1117C26.6348 26.4046 26.6348 26.876 26.6348 27.8188V37.8813C26.6348 38.8242 26.6348 39.2956 26.9277 39.5885C27.2206 39.8813 27.692 39.8813 28.6348 39.8813H30.2598C31.2026 39.8813 31.674 39.8813 31.9669 39.5885C32.2598 39.2956 32.2598 38.8242 32.2598 37.8813V27.8188C32.2598 26.876 32.2598 26.4046 31.9669 26.1117C31.674 25.8188 31.2026 25.8188 30.2598 25.8188Z" fill="#121926"/>
<path d="M22.416 34.1313V32.5063C22.416 31.5635 22.416 31.0921 22.7089 30.7992C23.0018 30.5063 23.4732 30.5063 24.416 30.5063H34.4785C35.4213 30.5063 35.8927 30.5063 36.1856 30.7992C36.4785 31.0921 36.4785 31.5635 36.4785 32.5063V34.1313C36.4785 35.0742 36.4785 35.5456 36.1856 35.8385C35.8927 36.1313 35.4213 36.1313 34.4785 36.1313H24.416C23.4732 36.1313 23.0018 36.1313 22.7089 35.8385C22.416 35.5456 22.416 35.0742 22.416 34.1313Z" fill="#121926"/>
<path fill-rule="evenodd" clip-rule="evenodd" d="M10.1503 39.8813C9.09439 39.8813 8.56642 39.8813 8.26787 39.5432C7.96931 39.205 8.0348 38.6811 8.16577 37.6333L10.4783 19.1333C10.5825 18.2991 10.6347 17.882 10.9182 17.6317C11.2018 17.3813 11.6221 17.3813 12.4628 17.3813H46.9005C47.7411 17.3813 48.1615 17.3813 48.445 17.6317C48.7286 17.882 48.7807 18.2991 48.885 19.1333L51.1975 37.6333C51.3285 38.6811 51.394 39.205 51.0954 39.5432C50.7969 39.8813 50.2689 39.8813 49.213 39.8813H46.2128C45.3721 39.8813 44.9518 39.8813 44.6682 39.631C44.3847 39.3807 44.3325 38.9636 44.2283 38.1294L42.5569 24.7583C42.4526 23.9241 42.4005 23.507 42.1169 23.2567C41.8334 23.0063 41.413 23.0063 40.5723 23.0063H18.1124C17.2609 23.0063 16.8351 23.0063 16.5504 23.2612C16.2656 23.5161 16.2186 23.9392 16.1246 24.7855L14.6449 38.1022C14.5509 38.9485 14.5039 39.3716 14.2191 39.6265C13.9344 39.8813 13.5086 39.8813 12.6572 39.8813H10.1503Z" fill="#121926"/>
<path d="M3 28.9473H56.8947V34.3367C56.8947 41.8827 56.8947 45.6556 55.4263 48.5378C54.1345 51.0731 52.0732 53.1344 49.5379 54.4262C46.6558 55.8946 42.8828 55.8946 35.3368 55.8946H24.5579C17.012 55.8946 13.2389 55.8946 10.3568 54.4262C7.82152 53.1344 5.7603 51.0731 4.46855 48.5378C3 45.6556 3 41.8827 3 34.3367V28.9473Z" fill="white" fill-opacity="0.1"/>
</g>
<path d="M24.5575 2.16797H35.3371C39.1128 2.16797 41.9344 2.1693 44.1727 2.35217C46.409 2.53489 48.0487 2.89848 49.4621 3.61863C51.9654 4.89418 54.0007 6.92957 55.2763 9.43278C55.9963 10.8461 56.36 12.486 56.5427 14.7222C56.7256 16.9605 56.7269 19.7821 56.7269 23.5578V34.3374C56.7269 38.113 56.7256 40.9346 56.5427 43.1729C56.36 45.4092 55.9963 47.049 55.2763 48.4624C54.0007 50.9656 51.9654 53.001 49.4621 54.2766C48.0487 54.9966 46.409 55.3602 44.1727 55.5429C41.9344 55.7258 39.1128 55.7272 35.3371 55.7272H24.5575C20.7819 55.7272 17.9603 55.7258 15.722 55.5429C13.4857 55.3602 11.8459 54.9966 10.4325 54.2766C7.92933 53.001 5.89394 50.9656 4.61839 48.4624C3.89823 47.049 3.53465 45.4092 3.35193 43.1729C3.16906 40.9346 3.16772 38.113 3.16772 34.3374V23.5578C3.16772 19.7821 3.16906 16.9605 3.35193 14.7222C3.53465 12.486 3.89823 10.8461 4.61839 9.43278C5.89394 6.92957 7.92933 4.89418 10.4325 3.61863C11.8459 2.89848 13.4857 2.53489 15.722 2.35217C17.9603 2.1693 20.7819 2.16797 24.5575 2.16797Z" stroke="#0A0D12" stroke-opacity="0.12" stroke-width="0.2"/>
</g>
<defs>
<filter id="filter0_dddi_753_3925" x="0" y="0" width="59.8948" height="59.8945" filterUnits="userSpaceOnUse" color-interpolation-filters="sRGB">
<feFlood flood-opacity="0" result="BackgroundImageFix"/>
<feColorMatrix in="SourceAlpha" type="matrix" values="0 0 0 0 0 0 0 0 0 0 0 0 0 0 0 0 0 0 127 0" result="hardAlpha"/>
<feOffset dy="1"/>
<feGaussianBlur stdDeviation="1"/>
<feColorMatrix type="matrix" values="0 0 0 0 0.0392157 0 0 0 0 0.0509804 0 0 0 0 0.0705882 0 0 0 0.06 0"/>
<feBlend mode="normal" in2="BackgroundImageFix" result="effect1_dropShadow_753_3925"/>
<feColorMatrix in="SourceAlpha" type="matrix" values="0 0 0 0 0 0 0 0 0 0 0 0 0 0 0 0 0 0 127 0" result="hardAlpha"/>
<feOffset dy="1"/>
<feGaussianBlur stdDeviation="1.5"/>
<feColorMatrix type="matrix" values="0 0 0 0 0.0392157 0 0 0 0 0.0509804 0 0 0 0 0.0705882 0 0 0 0.1 0"/>
<feBlend mode="normal" in2="effect1_dropShadow_753_3925" result="effect2_dropShadow_753_3925"/>
<feColorMatrix in="SourceAlpha" type="matrix" values="0 0 0 0 0 0 0 0 0 0 0 0 0 0 0 0 0 0 127 0" result="hardAlpha"/>
<feOffset dy="1"/>
<feGaussianBlur stdDeviation="0.5"/>
<feComposite in2="hardAlpha" operator="out"/>
<feColorMatrix type="matrix" values="0 0 0 0 0.0392157 0 0 0 0 0.0509804 0 0 0 0 0.0705882 0 0 0 0.13 0"/>
<feBlend mode="normal" in2="effect2_dropShadow_753_3925" result="effect3_dropShadow_753_3925"/>
<feBlend mode="normal" in="SourceGraphic" in2="effect3_dropShadow_753_3925" result="shape"/>
<feColorMatrix in="SourceAlpha" type="matrix" values="0 0 0 0 0 0 0 0 0 0 0 0 0 0 0 0 0 0 127 0" result="hardAlpha"/>
<feOffset dy="-0.5"/>
<feGaussianBlur stdDeviation="0.25"/>
<feComposite in2="hardAlpha" operator="arithmetic" k2="-1" k3="1"/>
<feColorMatrix type="matrix" values="0 0 0 0 0.0392157 0 0 0 0 0.0509804 0 0 0 0 0.0705882 0 0 0 0.1 0"/>
<feBlend mode="normal" in2="shape" result="effect4_innerShadow_753_3925"/>
</filter>
<filter id="filter1_d_753_3925" x="-1" y="2" width="61.8948" height="61.8945" filterUnits="userSpaceOnUse" color-interpolation-filters="sRGB">
<feFlood flood-opacity="0" result="BackgroundImageFix"/>
<feColorMatrix in="SourceAlpha" type="matrix" values="0 0 0 0 0 0 0 0 0 0 0 0 0 0 0 0 0 0 127 0" result="hardAlpha"/>
<feOffset dy="4"/>
<feGaussianBlur stdDeviation="2"/>
<feComposite in2="hardAlpha" operator="out"/>
<feColorMatrix type="matrix" values="0 0 0 0 0 0 0 0 0 0 0 0 0 0 0 0 0 0 0.25 0"/>
<feBlend mode="normal" in2="BackgroundImageFix" result="effect1_dropShadow_753_3925"/>
<feBlend mode="normal" in="SourceGraphic" in2="effect1_dropShadow_753_3925" result="shape"/>
</filter>
<linearGradient id="paint0_linear_753_3925" x1="29.9474" y1="2" x2="29.9474" y2="55.8947" gradientUnits="userSpaceOnUse">
<stop stop-color="white"/>
<stop offset="1" stop-color="#0A0D12"/>
</linearGradient>
</defs>
</svg>
