<svg class="nav-icon" viewBox="0 0 24 24" fill="none" xmlns="http://www.w3.org/2000/svg">
<path d="M22.45 18.75L15.1429 12M8.85714 12L1.55004 18.75M1 6.375L9.98141 12.8049C10.7087 13.3255 11.0723 13.5859 11.4679 13.6867C11.8173 13.7758 12.1827 13.7758 12.5321 13.6867C12.9277 13.5859 13.2913 13.3255 14.0186 12.8049L23 6.375M6.28 21H17.72C19.5682 21 20.4923 21 21.1982 20.6321C21.8191 20.3086 22.3239 19.7923 22.6403 19.1572C23 18.4353 23 17.4902 23 15.6V8.4C23 6.50982 23 5.56473 22.6403 4.84278C22.3239 4.20774 21.8191 3.69143 21.1982 3.36785C20.4923 3 19.5682 3 17.72 3H6.28C4.43183 3 3.50774 3 2.80183 3.36785C2.1809 3.69143 1.67606 4.20774 1.35968 4.84278C1 5.56473 1 6.50982 1 8.4V15.6C1 17.4902 1 18.4353 1.35968 19.1572C1.67606 19.7923 2.1809 20.3086 2.80183 20.6321C3.50774 21 4.43183 21 6.28 21Z" stroke="#9DA4AE" stroke-width="1.5" stroke-linecap="round" stroke-linejoin="round"/>
</svg>
