<svg width="24" height="24" viewBox="0 0 24 24" fill="none" xmlns="http://www.w3.org/2000/svg">
<path d="M7.6405 17.25C4.52519 17.25 2 14.7323 2 11.6249C2 8.51756 4.52538 6 7.6405 6C10.7556 6 13.2812 8.51832 13.2812 11.6249C13.2812 14.7315 10.7558 17.25 7.6405 17.25Z" fill="#7839EE"/>
<path d="M16.6488 16.9196C15.0913 16.9196 13.8285 14.5483 13.8285 11.6246C13.8285 8.70089 15.0913 6.32959 16.6488 6.32959C18.2064 6.32959 19.4692 8.70089 19.4692 11.6246C19.4692 14.5491 18.2064 16.9196 16.6488 16.9196Z" fill="#7839EE"/>
<path d="M22 11.625C22 14.2452 21.5559 16.3691 21.0081 16.3691C20.4603 16.3691 20.0161 14.2444 20.0161 11.625C20.0161 9.00555 20.4603 6.88086 21.0083 6.88086C21.5562 6.88086 22 9.00498 22 11.625Z" fill="#7839EE"/>
</svg>
