<svg viewBox="0 0 24 24" fill="none" xmlns="http://www.w3.org/2000/svg">
<path d="M6.76859 18.5C3.03023 18.5 0 15.4787 0 11.7499C0 8.02108 3.03045 5 6.76859 5C10.5067 5 13.5374 8.02199 13.5374 11.7499C13.5374 15.4778 10.507 18.5 6.76859 18.5Z" fill="#9DA4AE"/>
<path d="M17.5786 18.1036C15.7096 18.1036 14.1942 15.258 14.1942 11.7495C14.1942 8.24107 15.7096 5.39551 17.5786 5.39551C19.4477 5.39551 20.963 8.24107 20.963 11.7495C20.963 15.2589 19.4477 18.1036 17.5786 18.1036Z" fill="#9DA4AE"/>
<path d="M24 11.7501C24 14.8943 23.467 17.443 22.8096 17.443C22.1523 17.443 21.6193 14.8934 21.6193 11.7501C21.6193 8.60675 22.1523 6.05713 22.8098 6.05713C23.4674 6.05713 24 8.60607 24 11.7501" fill="#9DA4AE"/>
</svg>
