<svg width="24" height="24" viewBox="0 0 24 24" fill="none" xmlns="http://www.w3.org/2000/svg">
<g clip-path="url(#clip0_1966_1363)">
<path d="M6.87012 9.24512V20.2012H3.80762V9.24512H6.87012ZM16.1816 8.95898C17.9222 8.95907 18.8975 9.52662 19.457 10.4141C20.0333 11.328 20.2012 12.6294 20.2012 14.166V20.2012H17.1436V14.8828C17.1436 14.2307 17.1408 13.4204 16.8857 12.7744C16.7554 12.4445 16.5549 12.1445 16.2461 11.9287C15.9364 11.7124 15.539 11.5957 15.042 11.5957C14.5468 11.5957 14.1382 11.692 13.8066 11.876C13.4737 12.0608 13.233 12.3255 13.0625 12.6357C12.7279 13.2446 12.6592 14.037 12.6592 14.7891V20.2012H9.60645V9.24512H12.5186V10.5312C12.5186 10.6854 12.6437 10.8105 12.7979 10.8105C12.9004 10.8105 12.9951 10.7545 13.0439 10.6631C13.4811 9.84515 14.5585 8.95898 16.1816 8.95898ZM5.33887 3.55957C6.33986 3.55957 7.15137 4.37108 7.15137 5.37207C7.15126 6.36866 6.33942 7.18457 5.33887 7.18457C4.33297 7.18447 3.52159 6.37254 3.52148 5.37207C3.52148 4.37151 4.33291 3.55968 5.33887 3.55957Z" fill="#7839EE" stroke="#7839EE" stroke-width="0.5"/>
<path d="M1.77148 0.75H22.2236C22.8087 0.750101 23.2499 1.20704 23.25 1.72949V22.2705C23.2499 22.7896 22.8073 23.2499 22.2236 23.25H1.77148C1.19177 23.2498 0.75 22.7933 0.75 22.2656V1.72949C0.750108 1.20456 1.18917 0.750203 1.77148 0.75Z" stroke="#7839EE" stroke-width="1.5"/>
</g>
<defs>
<clipPath id="clip0_1966_1363">
<rect width="24" height="24" fill="white"/>
</clipPath>
</defs>
</svg>
